PathFileType	4	(X/Y/Z)	Patient4_TMGait_0pt2_02_right_15.trc.trc
DataRate	CameraRate	NumFrames	NumMarkers	Units	OrigDataRate	OrigDataStartFrame	OrigNumFrames
43.343653250774	43.343653250774	4	33	mm	43.343653250774	71	       141
Frame#	Time	R.Midfoot.Superior			Sacral			L.Shoulder			Chest			R.Shoulder			Neck			R.ASIS			L.ASIS			R.Thigh.Superior			R.Thigh.Lateral			R.Thigh.Inferior			R.Patella			L.Thigh.Superior			L.Thigh.Lateral			L.Thigh.Inferior			L.Patella			L.Shank.Superior			L.Shank.Lateral			L.Shank.Inferior			R.Shank.Superior			R.Shank.Lateral			R.Shank.Inferior			R.Heel			R.Midfoot.Lateral			R.Toe			L.Heel			L.Midfoot.Lateral			L.Midfoot.Superior			L.Toe			L.Elbow			L.Wrist			R.Elbow			R.Wrist			
		X1	Y1	Z1	X2	Y2	Z2	X3	Y3	Z3	X4	Y4	Z4	X5	Y5	Z5	X6	Y6	Z6	X7	Y7	Z7	X8	Y8	Z8	X9	Y9	Z9	X10	Y10	Z10	X11	Y11	Z11	X12	Y12	Z12	X13	Y13	Z13	X14	Y14	Z14	X15	Y15	Z15	X16	Y16	Z16	X17	Y17	Z17	X18	Y18	Z18	X19	Y19	Z19	X20	Y20	Z20	X21	Y21	Z21	X22	Y22	Z22	X23	Y23	Z23	X24	Y24	Z24	X25	Y25	Z25	X26	Y26	Z26	X27	Y27	Z27	X28	Y28	Z28	X29	Y29	Z29	X30	Y30	Z30	X31	Y31	Z31	X32	Y32	Z32	X33	Y33	Z33	

71	34.835000000000	958.638376090852	95.656377337212	609.035155725079	842.284826778077	1004.538731635413	606.392323018901	973.675375688921	1429.113666557277	380.918061243969	1118.512671667573	1352.181051142321	501.026418693488	1100.659052553820	1433.142415422300	687.283254795570	1007.319894200732	1488.146447600670	534.653517958930	1088.486172756634	931.452023786955	664.313277685052	1012.805710982209	958.549157095223	400.795645899471	1094.690791375352	723.168657429711	623.684417886936	1011.268202890640	617.290322117570	693.986564949010	1062.184927190752	562.620819079832	599.170731972705	1049.604453108531	473.076655453849	601.664932104056	1088.148810760207	767.808103384318	417.390552904772	1022.980800229799	641.660417005495	343.494060811727	1127.500530932570	581.048209430334	394.738913086786	1140.819000097391	516.881658210632	390.696824892494	1132.551228907910	446.508994427537	373.587229388846	1071.173689211669	319.693964641698	309.893976719258	1160.832254221549	218.219346588323	356.624956969018	1007.761988464504	388.469478329182	609.667950784343	932.068447298261	293.010748042701	679.835028452394	943.788421518028	198.159943390716	606.532114510696	783.244743237211	44.706118300455	591.704696773016	873.812641686152	36.720060181055	656.552037549772	1080.077848713497	41.567692556564	624.331031404753	1067.125168439410	56.766495743282	384.792780591606	1144.513505127387	45.078750734676	309.830123586436	1228.994197580254	105.337829686211	333.610994571542	1353.818627111551	48.226748815377	316.122198824889	771.393255535833	1136.403290749246	343.375201066135	700.213978903040	900.667855902596	439.247109580054	1348.190782379979	1215.479807326701	765.121048048276	1570.238387524660	1303.441914052949	663.344051163447	
72	34.858071428571	953.949523818512	95.622279578646	608.900256791495	843.970945675597	1003.478567277903	603.448032559133	973.911272720115	1427.735786018054	377.097767530476	1119.331131333828	1351.529157988711	496.991448108822	1101.486840574756	1432.361218576903	683.231697825334	1007.765474365240	1487.185539295712	530.662474180258	1090.281973820768	930.623456486219	661.449953166397	1014.383007968326	957.108073906843	397.985310959646	1095.152954689582	721.814315745054	621.327463708160	1010.787911856711	616.606203198407	691.951627787897	1060.975128126582	561.315721191185	597.316910568651	1047.398268172940	471.858874486435	599.975509972497	1089.610921185618	765.389318606502	415.227399336429	1022.941986758680	639.424147529574	342.485292190590	1126.813105878436	578.159703219568	393.907039703047	1139.341322045078	513.730626383488	390.229919094010	1130.440100381811	443.256393986236	373.423183046990	1067.474004922453	317.150198483623	310.422819727301	1155.495924314909	214.808209408692	357.914597990740	1005.052750408024	387.477294149282	608.312435614298	928.802182636567	292.738088642911	678.856063889868	939.839978458581	197.610323390698	605.951994334263	778.562992361941	44.581734381658	591.664410427463	869.125706084088	36.689214069481	656.549445690293	1075.394780528007	41.601733576074	624.354878833153	1060.459891280393	52.565811929652	385.547155253907	1138.058617612673	43.345073663894	310.324160015388	1221.869061902845	103.795448615424	335.684056393251	1347.352376308422	48.372576292047	317.102137943666	773.669261109771	1133.446704819368	340.051468136638	703.498239915518	897.362105835468	435.756110217706	1351.153571673281	1218.415596809316	759.425436658598	1568.632234973909	1313.304522890972	654.905419352540	
73	34.881142857143	949.287444218623	95.603679525545	608.758499420854	845.780667268346	1002.550815250028	600.199344131195	974.344616940969	1426.418172034417	373.007753330735	1120.331105791450	1350.982296550117	492.744378692094	1102.432379782562	1431.736677162457	678.968397947883	1008.344889014161	1486.334722271285	526.369509301511	1092.221091615783	929.791303914936	658.287775341300	1016.140529472002	955.872652778180	394.875213456672	1095.698096144709	720.463874283881	618.643619383394	1010.430477030697	615.956875671436	689.634491523211	1059.859417079814	560.026702909909	595.177099747111	1045.320458846637	470.665061475690	598.033097105561	1091.406409990906	763.330355960441	412.824468058497	1023.480098973540	637.541667041376	341.157269190292	1126.718982227292	575.627422902308	392.807336920205	1138.720411260837	510.885081656541	389.442955363157	1128.915533686589	440.236632688889	372.991582867623	1064.064967516904	314.853478923390	310.786810224426	1150.294307163402	211.480279496591	359.052232449775	1002.422149341713	386.528507439351	606.754990109138	925.638697916193	292.560090686667	677.751549091629	935.936213803807	197.115296412064	605.286807496987	773.900940100505	44.559702990859	591.628681556569	864.461008628304	36.715795927579	656.543477796663	1070.722662333516	41.605963650320	624.379423198658	1053.753904695359	48.421913828556	386.311689567284	1131.483609969505	41.577960147431	310.740729171636	1214.588234708212	102.395855855182	337.471254135649	1340.847238110177	48.781739319384	317.761294627624	776.669363565457	1130.189770897873	335.690147238865	707.880071726387	893.416447049848	430.548911949215	1353.602620136679	1220.606228132452	754.040287034355	1566.991646494271	1320.934691174702	647.112612972340	
74	34.904214285714	944.678958906768	95.614183766509	608.622823690175	847.680859684727	1001.855763470173	596.648958526040	975.000478203808	1425.268074408925	368.712112508485	1121.527615820816	1350.597327355154	488.325454629084	1103.549624223162	1431.323946525434	674.535065036716	1009.103331476980	1485.667969494175	521.852536314381	1094.247801376962	929.016726576799	654.825508954227	1018.041457885370	954.948504927365	391.455107237649	1096.232944044717	719.181462014692	615.660065951204	1010.088807134096	615.422401030203	687.071028722048	1058.747404669106	558.821008346207	592.805696142184	1043.285926997082	469.574036669621	595.902114761885	1093.496063154725	761.789274250525	410.128980643172	1024.569920863267	636.110042054991	339.449882475502	1127.257469912916	573.600278869648	391.314469243707	1138.949425042057	508.504277885667	388.272574738409	1128.067200289439	437.621444114636	372.232071390377	1061.206145738605	312.950489148102	310.851375195382	1145.532055193641	208.471332276478	359.928267313689	999.816192631077	385.710421975940	605.056450823685	922.528725135937	292.545741267545	676.567713960819	932.069967010111	196.741852553526	604.569345361619	769.272148387492	44.704343575396	591.602506649161	859.830142613898	36.832568053717	656.533834249858	1066.069233017508	41.562790118390	624.405504598501	1047.339784369272	44.722133404917	386.997394457777	1125.130912454052	39.942376359686	311.049244153546	1207.570665953257	101.209757929493	338.876685033693	1334.617466405733	49.303746445043	318.140406598773	780.295221147609	1126.854738858546	330.379226254233	713.241946876690	889.061161975956	423.702865185175	1355.702476415942	1222.167190302446	748.905385916876	1565.582746941481	1326.622991696554	639.896333053092	
